<?xml version="1.0" encoding="UTF-8" standalone="no" ?>
<!DOCTYPE svg PUBLIC "-//W3C//DTD SVG 1.1//EN" "http://www.w3.org/Graphics/SVG/1.1/DTD/svg11.dtd">
<svg xmlns="http://www.w3.org/2000/svg" xmlns:xlink="http://www.w3.org/1999/xlink" version="1.1" width="1080" height="1080" viewBox="0 0 1080 1080" xml:space="preserve">
<desc>Created with Fabric.js 5.2.4</desc>
<defs>
</defs>
<rect x="0" y="0" width="100%" height="100%" fill="transparent"></rect>
<g transform="matrix(1 0 0 1 540 540)" id="e7be6db3-80d8-4221-83a1-aba9ede17be2"  >
<rect style="stroke: none; stroke-width: 1; stroke-dasharray: none; stroke-linecap: butt; stroke-dashoffset: 0; stroke-linejoin: miter; stroke-miterlimit: 4; fill: rgb(255,255,255); fill-rule: nonzero; opacity: 1; visibility: hidden;" vector-effect="non-scaling-stroke"  x="-540" y="-540" rx="0" ry="0" width="1080" height="1080" />
</g>
<g transform="matrix(1 0 0 1 540 540)" id="1b302020-5ba6-43da-8227-ebedf1c9be83"  >
</g>
<g transform="matrix(1 0 0 1 217.5 505.48)"  >
<path style="stroke: none; stroke-width: 1; stroke-dasharray: none; stroke-linecap: butt; stroke-dashoffset: 0; stroke-linejoin: miter; stroke-miterlimit: 4; fill: rgb(251,251,251); fill-rule: nonzero; opacity: 1;" vector-effect="non-scaling-stroke"  transform=" translate(-77.5, -80.48)" d="M 0 0 C 10.88474736 -0.11674198 21.76934158 -0.20513996 32.65459156 -0.25906086 C 37.71111755 -0.2849629 42.76720984 -0.3199984 47.82348633 -0.37719727 C 52.7189264 -0.43221913 57.61395396 -0.46156557 62.50967979 -0.47438622 C 64.36127896 -0.48350203 66.21286002 -0.50129552 68.06427956 -0.52865028 C 86.22731838 -0.78591051 105.67705274 1.54658905 119.8125 14.125 C 127.58445709 22.47751292 130.59583299 32.88704464 130.33203125 44.0078125 C 129.70701207 54.77460376 123.73875661 62.92246626 116 70 C 111.01410467 73.97970561 105.8262429 77.39352291 100 80 C 102.4932769 81.6621846 104.44739205 82.61570556 107.1875 83.6875 C 117.59391064 88.29943199 123.20364793 96.22278212 127.45703125 106.53125 C 129.35575394 111.46214863 131.10936289 116.44448165 132.84814453 121.43359375 C 137.68280869 137.49718787 137.68280869 137.49718787 148.5625 149.5 C 151.46076707 150.76469836 153.87648603 151.62139225 157 152 C 157 153.65 157 155.3 157 157 C 147.92663861 160.86307694 136.43948933 162.92111596 126.74609375 160.41796875 C 117.41193068 156.41761315 112.22709219 147.52369166 108.3671875 138.59375 C 106.64965909 134.07910389 105.21163696 129.51202681 103.82128906 124.88818359 C 99.54906114 110.7419825 93.85855567 96.95010972 80.3125 89.52734375 C 72.74998518 86.07795202 65.23121594 84.81581578 57 84 C 57 82.68 57 81.36 57 80 C 58.22074219 79.79246094 59.44148438 79.58492188 60.69921875 79.37109375 C 72.44222285 77.23317589 84.64379454 74.87333367 92.625 65.125 C 93.942482 63.10050096 93.942482 63.10050096 95 61 C 95.33515625 60.35804688 95.6703125 59.71609375 96.015625 59.0546875 C 99.22573389 51.37960898 99.33773368 41.19270814 97.2734375 33.1796875 C 96.34632734 30.95613062 95.30555323 29.02122194 94 27 C 93.34 25.9275 92.68 24.855 92 23.75 C 87.53785756 18.72834126 79.44478699 16.30980501 73 15 C 71.0482673 14.91940003 69.09399582 14.89237757 67.140625 14.90234375 C 66.02558594 14.90556641 64.91054687 14.90878906 63.76171875 14.91210938 C 62.02341797 14.92467773 62.02341797 14.92467773 60.25 14.9375 C 58.48849609 14.94426758 58.48849609 14.94426758 56.69140625 14.95117188 C 53.79421928 14.96294906 50.89713546 14.97939674 48 15 C 48.06066035 30.47346447 48.1382486 45.94677652 48.23571491 61.42004967 C 48.28058529 68.60537621 48.32001985 75.79065417 48.34643555 82.97607422 C 48.3694869 89.24252894 48.40296379 95.50882875 48.44870156 101.77516043 C 48.4725383 105.08987046 48.48977362 108.40439676 48.49761391 111.71918869 C 48.50727555 115.42939615 48.53536131 119.13905063 48.56762695 122.84912109 C 48.56619186 123.93525696 48.56475677 125.02139282 48.5632782 126.14044189 C 48.64313538 132.6589045 49.12566199 139.04085358 52 145 C 56.9613539 148.27449358 62.19581776 148.55352444 68 149 C 68 152.3 68 155.6 68 159 C 44.9 159 21.8 159 -2 159 C -2 155.7 -2 152.4 -2 149 C 0.289375 148.5978125 0.289375 148.5978125 2.625 148.1875 C 8.65602114 146.94959091 8.65602114 146.94959091 14 144 C 17.14806934 137.45359553 17.42995275 131.74164758 17.38818359 124.55444336 C 17.39344055 123.43310501 17.39869751 122.31176666 17.40411377 121.15644836 C 17.4172664 117.46743649 17.4085927 113.77885965 17.3984375 110.08984375 C 17.40045944 107.51729754 17.40337189 104.94475189 17.40713501 102.37220764 C 17.41155184 96.98823034 17.40543552 91.60441522 17.39111328 86.22045898 C 17.37478092 80.00941141 17.38008472 73.79865923 17.3965925 67.58761877 C 17.41188133 61.59361969 17.41021964 55.59976433 17.4014473 49.60574532 C 17.39944846 47.06326824 17.40189341 44.5207836 17.40888596 41.97831535 C 17.41651721 38.42406196 17.40487221 34.8703735 17.38818359 31.31616211 C 17.39425629 30.26921173 17.40032898 29.22226135 17.40658569 28.14358521 C 17.35625095 22.34756932 16.92302105 18.06639095 14 13 C 9.46796788 10.38536609 5.17246701 9.52780276 0 9 C 0 6.03 0 3.06 0 0 Z" stroke-linecap="round" />
</g>
<g transform="matrix(1 0 0 1 365.06 529.58)"  >
<path style="stroke: none; stroke-width: 1; stroke-dasharray: none; stroke-linecap: butt; stroke-dashoffset: 0; stroke-linejoin: miter; stroke-miterlimit: 4; fill: rgb(251,251,251); fill-rule: nonzero; opacity: 1;" vector-effect="non-scaling-stroke"  transform=" translate(34.67, -45.58)" d="M 0 0 C 6.14737375 5.20663928 10.36400204 10.98569099 14.265625 17.99609375 C 14.66523438 18.69734375 15.06484375 19.39859375 15.4765625 20.12109375 C 16.51027248 22.04861311 17.40993422 23.98363581 18.265625 25.99609375 C 18.5646875 26.6715625 18.86375 27.34703125 19.171875 28.04296875 C 24.53467529 42.44308065 21.82058284 60.2698775 15.80859375 73.96875 C 8.85981479 87.60243023 -0.93776434 94.67744949 -14.859375 100.24609375 C -30.41491847 104.30406161 -49.09307674 103.28907462 -63.265625 95.55859375 C -76.21424746 87.36326308 -85.01482656 76.6408728 -89.734375 61.99609375 C -93.53319345 45.0231677 -90.81028266 28.64850323 -81.77734375 13.953125 C -72.70667854 0.82407421 -61.83362262 -6.62273293 -46.44921875 -10.59375 C -29.79812154 -13.10938339 -13.71647359 -10.05221564 0 0 Z" stroke-linecap="round" />
</g>
<g transform="matrix(1 0 0 1 560.99 1571.02)"  >
<path style="stroke: none; stroke-width: 1; stroke-dasharray: none; stroke-linecap: butt; stroke-dashoffset: 0; stroke-linejoin: miter; stroke-miterlimit: 4; fill: rgb(0,0,0); fill-rule: nonzero; opacity: 0;" vector-effect="non-scaling-stroke"  transform=" translate(-540, -540)" d="M 0 0 C 356.4 0 712.8 0 1080 0 C 1080 356.4 1080 712.8 1080 1080 C 723.6 1080 367.2 1080 0 1080 C 0 723.6 0 367.2 0 0 Z" stroke-linecap="round" />
</g>
<g transform="matrix(1 0 0 1 757.5 494.5)"  >
<path style="stroke: none; stroke-width: 1; stroke-dasharray: none; stroke-linecap: butt; stroke-dashoffset: 0; stroke-linejoin: miter; stroke-miterlimit: 4; fill: rgb(253,253,253); fill-rule: nonzero; opacity: 1;" vector-effect="non-scaling-stroke"  transform=" translate(-21.5, -89.5)" d="M 0 0 C 0 27.72 0 55.44 0 84 C 5.28 81.03 10.56 78.06 16 75 C 18.96443207 73.70129643 21.71938902 72.52299105 24.75 71.5 C 25.40742187 71.2628125 26.06484375 71.025625 26.7421875 70.78125 C 36.95438695 67.14289554 46.86904551 66.5309554 57 71 C 65.22827885 75.68969261 68.77334178 82.08327737 71.36251831 90.93487549 C 72.64825163 97.1169083 72.4409722 103.42379841 72.44140625 109.7109375 C 72.45320123 111.21165235 72.46657058 112.71235557 72.48143005 114.21304321 C 72.51736123 118.13392271 72.5377474 122.05469888 72.55297852 125.97570801 C 72.57796158 132.27111889 72.61751208 138.566302 72.67487907 144.86149979 C 72.69116104 147.05293442 72.69497962 149.24415089 72.69789124 151.43563843 C 72.70766621 152.77789691 72.71792928 154.12015196 72.72875977 155.46240234 C 72.73517235 157.21585464 72.73517235 157.21585464 72.74171448 159.00473022 C 72.99313262 161.92036079 73.40932223 163.57469021 75 166 C 78.1000506 168.10360577 81.33291152 168.49994248 85 169 C 85 172.3 85 175.6 85 179 C 66.85 179 48.7 179 30 179 C 30 175.7 30 172.4 30 169 C 31.92057292 168.64192708 33.84114583 168.28385417 35.76171875 167.92578125 C 39.0683746 166.55810684 41.23908444 165.10676547 43 162 C 43.76033924 157.57397698 43.67611955 153.18431806 43.62890625 148.703125 C 43.63131821 147.3997821 43.63373016 146.09643921 43.63621521 144.75360107 C 43.63906958 141.99622346 43.62441803 139.23965967 43.59692383 136.48242188 C 43.5629739 132.97088417 43.56881668 129.46081352 43.5875864 125.94920731 C 43.60078879 122.57537196 43.58240487 119.20195027 43.56640625 115.828125 C 43.57136612 114.57783508 43.57632599 113.32754517 43.58143616 112.03936768 C 43.46989975 103.69736641 42.38448407 97.12483996 37 90.5625 C 32.51375601 87.05762188 28.62177456 86.58236273 23 86.5625 C 21.87356079 86.55669922 21.87356079 86.55669922 20.72436523 86.55078125 C 14.58565399 86.67639487 9.74954161 88.16941543 4.22265625 90.90625 C 2 92 2 92 0 92 C 0.10755144 101.05785937 0.22019502 110.11563693 0.33933926 119.17335129 C 0.39450271 123.37921308 0.44791213 127.5850819 0.49731445 131.79101562 C 0.5450551 135.84998814 0.59740131 139.90887752 0.65294075 143.96775055 C 0.67332038 145.5162677 0.69204064 147.0648076 0.70907402 148.61336517 C 0.73321547 150.78236613 0.76325636 152.95121117 0.79467773 155.12011719 C 0.81799416 156.97210724 0.81799416 156.97210724 0.84178162 158.86151123 C 0.9075716 162.17820475 0.9075716 162.17820475 2 166 C 5.63 166.99 9.26 167.98 13 169 C 13 172.3 13 175.6 13 179 C -5.15 179 -23.3 179 -42 179 C -42 175.7 -42 172.4 -42 169 C -38 168 -34 167 -30 166 C -29.06874437 162.8363987 -28.87006157 159.99239157 -28.85955811 156.69998169 C -28.85384796 155.62614227 -28.84813782 154.55230286 -28.84225464 153.44592285 C -28.84113678 152.27283569 -28.84001892 151.09974854 -28.83886719 149.89111328 C -28.83390228 148.6517099 -28.82893738 147.41230652 -28.82382202 146.13534546 C -28.81172464 142.73857783 -28.80425841 139.34187166 -28.79981136 135.94508982 C -28.79687687 133.82166562 -28.79277139 131.69824678 -28.78830719 129.57482529 C -28.7746402 122.92732396 -28.7649692 116.27983492 -28.7611053 109.63232052 C -28.75662402 101.96549437 -28.73906965 94.29884644 -28.7101047 86.63207448 C -28.6884758 80.70073525 -28.6784004 74.76944613 -28.67706418 68.83806789 C -28.67601717 65.29770795 -28.67013144 61.75751575 -28.65224457 58.21719742 C -28.63267557 54.26729855 -28.6370577 50.31762195 -28.64355469 46.36767578 C -28.62973251 44.61411774 -28.62973251 44.61411774 -28.6156311 42.82513428 C -28.65042216 34.99243876 -28.65042216 34.99243876 -32 28 C -33.97918388 26.67698578 -33.97918388 26.67698578 -36.1875 26.125 C -37.445625 25.75375 -38.70375 25.3825 -40 25 C -40 21.7 -40 18.4 -40 15 C -38.94683594 14.79246094 -37.89367187 14.58492188 -36.80859375 14.37109375 C -24.88525898 11.87790636 -14.71237883 7.89747766 -4.1328125 1.78125 C -1 0 -1 0 0 0 Z" stroke-linecap="round" />
</g>
<g transform="matrix(1 0 0 1 501.5 523.67)"  >
<path style="stroke: none; stroke-width: 1; stroke-dasharray: none; stroke-linecap: butt; stroke-dashoffset: 0; stroke-linejoin: miter; stroke-miterlimit: 4; fill: rgb(251,251,251); fill-rule: nonzero; opacity: 1;" vector-effect="non-scaling-stroke"  transform=" translate(-23.5, -57.5)" d="M 0 0 C 0.00586624 1.02428604 0.01173248 2.04857208 0.01777649 3.10389709 C 0.0750608 12.77037648 0.1478523 22.43663213 0.23571491 32.10288334 C 0.2803876 37.07207165 0.31965062 42.04117857 0.34643555 47.01049805 C 0.37249938 51.8087524 0.41292371 56.60669299 0.46318626 61.40475273 C 0.47983413 63.23267137 0.49136134 65.06064425 0.49761391 66.88862801 C 0.50727768 69.45481154 0.53536364 72.02019613 0.56762695 74.58618164 C 0.56619186 75.33712601 0.56475677 76.08807037 0.5632782 76.86177063 C 0.6696466 82.8681252 2.0327643 87.4900786 5.8125 92.3125 C 10.46557334 95.90201372 15.46406235 96.48561168 21.19140625 96.3984375 C 26.20649833 95.68697798 33.3200515 93.6799485 37 90 C 37.10979837 88.05378693 37.14911603 86.10356766 37.16113281 84.15429688 C 37.17074036 82.90209351 37.1803479 81.64989014 37.19024658 80.35974121 C 37.19509735 78.97941266 37.19937549 77.59908199 37.203125 76.21875 C 37.2088777 74.80684406 37.21463542 73.39493813 37.22039795 71.98303223 C 37.23092421 69.01374955 37.23675458 66.04449404 37.24023438 63.07519531 C 37.24568837 59.29032437 37.2696421 55.50581882 37.29820633 51.72106171 C 37.31694603 48.79889935 37.32204453 45.87682244 37.32357025 42.9546051 C 37.32657756 41.5608981 37.33454037 40.1671919 37.34775543 38.77354431 C 37.59082763 27.5099825 37.59082763 27.5099825 34 17 C 33.113125 16.484375 32.22625 15.96875 31.3125 15.4375 C 30.549375 14.963125 29.78625 14.48875 29 14 C 28.67862035 11.30979175 28.8995721 8.71698183 29 6 C 33.14307363 5.15254288 37.28982796 4.3246312 41.4375 3.5 C 42.60216797 3.26152344 43.76683594 3.02304687 44.96679688 2.77734375 C 46.11083984 2.55175781 47.25488281 2.32617188 48.43359375 2.09375 C 49.47572021 1.88427734 50.51784668 1.67480469 51.59155273 1.45898438 C 55.75365222 0.89851256 59.8083489 0.90725703 64 1 C 64.00546844 2.42914482 64.00546844 2.42914482 64.01104736 3.88716125 C 64.04813068 12.90493152 64.10604774 21.9223645 64.18390274 30.93987751 C 64.22326345 35.57492211 64.25550751 40.20977998 64.27099609 44.8449707 C 64.2862383 49.32561297 64.32081631 53.80574145 64.36830902 58.28615379 C 64.38304532 59.98795267 64.39103652 61.68982493 64.39188385 63.39168739 C 64.24683591 78.3457204 64.24683591 78.3457204 70.30523682 91.73042297 C 74.12998962 95.42231688 77.94774411 95.73867642 83 96 C 83 99.3 83 102.6 83 106 C 74.22683317 108.25474333 65.41746533 110.28092852 56.5625 112.1875 C 55.32306641 112.46013672 54.08363281 112.73277344 52.80664062 113.01367188 C 51.01709961 113.39942383 51.01709961 113.39942383 49.19140625 113.79296875 C 47.58567749 114.14137817 47.58567749 114.14137817 45.94750977 114.49682617 C 43 115 43 115 38 115 C 37.505 107.575 37.505 107.575 37 100 C 35.96101562 100.60328125 34.92203125 101.2065625 33.8515625 101.828125 C 19.96198232 109.81742619 7.20745379 116.54287761 -9.37890625 113.57421875 C -15.63866288 111.57746663 -20.23280026 107.33625891 -23.2890625 101.56640625 C -27.22219484 92.2711978 -27.15335839 83.32476995 -27.2109375 73.359375 C -27.23182455 71.34501413 -27.25272927 69.33065328 -27.27463722 67.31630325 C -27.3274622 62.38004265 -27.37190982 57.44378086 -27.40136719 52.50732422 C -27.42250305 49.05607536 -27.45794825 45.60520981 -27.50212479 42.15418243 C -27.52286367 40.22524728 -27.528297 38.29616663 -27.53329468 36.36712646 C -27.63790509 28.80325281 -28.59311135 22.18126901 -31 15 C -32.65 14.67 -34.3 14.34 -36 14 C -36 11.36 -36 8.72 -36 6 C -31.35584074 5.14212533 -26.71106181 4.28771949 -22.06567383 3.43652344 C -20.48542035 3.14646151 -18.90534049 2.85545207 -17.32543945 2.56347656 C -15.05464931 2.14399035 -12.78325685 1.72791436 -10.51171875 1.3125 C -9.80536789 1.18125732 -9.09901703 1.05001465 -8.3712616 0.91479492 C -5.53096327 0.39819987 -2.89430099 0 0 0 Z" stroke-linecap="round" />
</g>
<g transform="matrix(1 0 0 1 625.74 529.48)"  >
<path style="stroke: none; stroke-width: 1; stroke-dasharray: none; stroke-linecap: butt; stroke-dashoffset: 0; stroke-linejoin: miter; stroke-miterlimit: 4; fill: rgb(250,250,250); fill-rule: nonzero; opacity: 1;" vector-effect="non-scaling-stroke"  transform=" translate(40.75, -51.67)" d="M 0 0 C 3.69060415 3.22927863 6.04877545 6.15698951 7.125 11 C 5.87164677 17.39210145 1.31717292 22.92615473 -3.5 27.1875 C -3.85191406 26.67960937 -4.20382812 26.17171875 -4.56640625 25.6484375 C -10.13929763 17.87840096 -15.74799174 11.85380953 -25.5 10.1875 C -37.32893123 9.00868237 -37.32893123 9.00868237 -47.89453125 13.5703125 C -57.22431807 22.96819995 -60.65729439 33.91405912 -60.8125 46.9375 C -60.73756171 59.5432959 -57.9799461 72.46730615 -49.68359375 82.3515625 C -42.9369623 88.75745498 -35.67216057 91.38642965 -26.4375 91.625 C -17.49247631 91.33457715 -11.16478679 88.77335239 -3.51953125 84.328125 C -1.25371903 83.04840127 1.04842651 82.05741317 3.5 81.1875 C 4.36941494 82.42694276 5.22005457 83.67957059 6.0625 84.9375 C 6.77599609 85.98164062 6.77599609 85.98164062 7.50390625 87.046875 C 8.5 89.1875 8.5 89.1875 8.53125 91.2109375 C 4.45844835 99.01714066 -10.9676717 103.21289851 -18.90625 106.05859375 C -33.40107258 110.61185867 -49.91582712 109.65357284 -63.3515625 102.71484375 C -73.79255671 96.63145456 -80.85650753 88.28339567 -85.5 77.1875 C -86.02400391 75.95386719 -86.02400391 75.95386719 -86.55859375 74.6953125 C -92.43468468 59.04199142 -90.31959519 41.33721906 -84.28515625 26.125 C -77.35299678 11.97937603 -64.8435595 3.21670987 -50.34375 -1.93359375 C -34.72470773 -6.41763198 -14.74666995 -7.63666837 0 0 Z" stroke-linecap="round" />
</g>
<g transform="matrix(1 0 0 1 364.75 530.07)"  >
<path style="stroke: none; stroke-width: 2; stroke-dasharray: none; stroke-linecap: butt; stroke-dashoffset: 0; stroke-linejoin: miter; stroke-miterlimit: 4; fill: rgb(0,0,0); fill-opacity: 0; fill-rule: nonzero; opacity: 1;" vector-effect="non-scaling-stroke"  transform=" translate(5.73, -44.95)" d="M 0 0 C 9.70877199 4.25229161 14.47088157 12.95398699 18.203125 22.3828125 C 20.26849555 30.00879608 20.22784768 37.78457376 20.265625 45.6328125 C 20.28625 46.68855469 20.306875 47.74429688 20.328125 48.83203125 C 20.38890776 61.24691084 17.67955747 74.79210796 9.24609375 84.3984375 C 4.10631499 89.01192083 -0.72274541 90.94926806 -7.65234375 90.75390625 C -14.30604089 89.69511022 -19.30078231 84.70140639 -23.44921875 79.68359375 C -32.57050659 66.01326669 -33.06946254 45.63664228 -30.33203125 29.97265625 C -27.67542591 18.94717402 -22.81127847 7.7508292 -12.984375 1.3828125 C -8.64027595 -1.05597995 -4.86904563 -1.51438821 0 0 Z" stroke-linecap="round" />
</g>
<g transform="matrix(1 0 0 1 865 525)"  >
<path style="stroke: none; stroke-width: 1; stroke-dasharray: none; stroke-linecap: butt; stroke-dashoffset: 0; stroke-linejoin: miter; stroke-miterlimit: 4; fill: rgb(252,252,252); fill-rule: nonzero; opacity: 1;" vector-effect="non-scaling-stroke"  transform=" translate(14, -59)" d="M 0 0 C 0.00808685 1.25645325 0.01617371 2.51290649 0.02450562 3.80743408 C 0.10193053 15.63806005 0.18966065 27.4685705 0.28752708 39.29904556 C 0.33751085 45.38146933 0.38384082 51.46387556 0.421875 57.54638672 C 0.45870134 63.41438416 0.50505428 69.28223555 0.55806351 75.15010834 C 0.57662152 77.39081006 0.59172425 79.63154312 0.60334396 81.87229156 C 0.62018214 85.00648513 0.64921173 88.14034316 0.68115234 91.27441406 C 0.68331253 92.20445755 0.68547272 93.13450104 0.68769836 94.09272766 C 0.69886185 94.94805588 0.71002533 95.80338409 0.7215271 96.68463135 C 0.72705786 97.42575291 0.73258862 98.16687447 0.73828697 98.93045425 C 1.04184468 101.33089482 1.75135122 102.93657695 3 105 C 6.1000506 107.10360577 9.33291152 107.49994248 13 108 C 13 111.3 13 114.6 13 118 C -4.82 118 -22.64 118 -41 118 C -41 114.7 -41 111.4 -41 108 C -40.30132813 107.82984375 -39.60265625 107.6596875 -38.8828125 107.484375 C -37.97273437 107.24203125 -37.06265625 106.9996875 -36.125 106.75 C -35.22007812 106.51796875 -34.31515625 106.2859375 -33.3828125 106.046875 C -30.93940292 105.22361686 -30.93940292 105.22361686 -29.86824036 103.34713745 C -28.73099839 100.27280074 -28.73813355 97.67789275 -28.7253418 94.39892578 C -28.72023087 93.74473663 -28.71511993 93.09054749 -28.70985413 92.41653442 C -28.69598319 90.25936671 -28.69691318 88.10251945 -28.69921875 85.9453125 C -28.69532997 84.44082522 -28.69099492 82.93633902 -28.68623352 81.43185425 C -28.67877635 78.27956584 -28.67905856 75.12738944 -28.68432617 71.97509766 C -28.69011522 67.94449854 -28.67320142 63.91435979 -28.6499815 59.88383675 C -28.63521515 56.77649271 -28.63437647 53.66925874 -28.63749123 50.56188583 C -28.63697931 49.07639531 -28.63176587 47.59089842 -28.62167931 46.10544205 C -28.60927756 44.02328268 -28.61612816 41.94200954 -28.62768555 39.85986328 C -28.62705612 38.67723907 -28.6264267 37.49461487 -28.6257782 36.27615356 C -29.04764634 32.58287641 -30.08187716 30.16682634 -32 27 C -33.97918388 25.67698578 -33.97918388 25.67698578 -36.1875 25.125 C -37.445625 24.75375 -38.70375 24.3825 -40 24 C -40 21.03 -40 18.06 -40 15 C -38.9584375 14.72027344 -37.916875 14.44054687 -36.84375 14.15234375 C -25.55669975 11.02943398 -14.25141503 7.38690578 -4.171875 1.2890625 C -2 0 -2 0 0 0 Z" stroke-linecap="round" />
</g>
<g transform="matrix(1 0 0 1 862.19 435.55)"  >
<path style="stroke: none; stroke-width: 1; stroke-dasharray: none; stroke-linecap: butt; stroke-dashoffset: 0; stroke-linejoin: miter; stroke-miterlimit: 4; fill: rgb(249,249,249); fill-rule: nonzero; opacity: 1;" vector-effect="non-scaling-stroke"  transform=" translate(0.69, -18.41)" d="M 0 0 C 2.96319536 1.20499626 4.05794897 3.03777699 5.92578125 5.609375 C 8.4329916 8.91625844 10.59925594 11.45511664 14.11328125 13.671875 C 17.11328125 15.859375 17.11328125 15.859375 17.86328125 18.421875 C 16.80901638 21.84823583 15.03594173 22.84598667 12.11328125 24.859375 C 8.11866056 27.78226818 5.75164069 30.67439106 3.11328125 34.859375 C 2.45328125 35.519375 1.79328125 36.179375 1.11328125 36.859375 C -1.3359375 36.75 -1.3359375 36.75 -3.88671875 35.859375 C -5.40625 33.96875 -5.40625 33.96875 -6.69921875 31.609375 C -9.67569377 26.74159814 -12.9379942 24.50499385 -17.88671875 21.859375 C -18.88671875 20.859375 -18.88671875 20.859375 -19.2421875 18.50390625 C -18.88671875 15.859375 -18.88671875 15.859375 -16.875 14.12109375 C -15.99199219 13.60160156 -15.10898437 13.08210938 -14.19921875 12.546875 C -9.74379047 9.67952017 -7.27596283 7.13006776 -4.82421875 2.4609375 C -3.5269396 0.24475228 -2.54824583 -0.18993137 0 0 Z" stroke-linecap="round" />
</g>
<g transform="matrix(1 0 0 1 924.06 565.47)"  >
<path style="stroke: none; stroke-width: 1; stroke-dasharray: none; stroke-linecap: butt; stroke-dashoffset: 0; stroke-linejoin: miter; stroke-miterlimit: 4; fill: rgb(250,250,250); fill-rule: nonzero; opacity: 1;" vector-effect="non-scaling-stroke"  transform=" translate(-0.13, -18.53)" d="M 0 0 C 4.22496012 1.46580249 5.13262117 3.92446615 7.33984375 7.6796875 C 9.75724131 11.02348005 12.70930938 12.65584363 16.3046875 14.578125 C 18.0625 16.0625 18.0625 16.0625 18.45703125 18.60546875 C 18.0625 21.0625 18.0625 21.0625 15.875 23.125 C 14.946875 23.764375 14.01875 24.40375 13.0625 25.0625 C 9.78932967 27.37766926 7.87909472 29.1983206 6.125 32.75 C 4.0625 36.0625 4.0625 36.0625 0.8125 37 C -0.095 37.020625 -1.0025 37.04125 -1.9375 37.0625 C -3.95380414 34.62902949 -5.77007569 32.39734862 -7.1875 29.5625 C -9.3929425 26.41186786 -11.90283414 24.98366193 -15.1953125 23.078125 C -16.9375 22.0625 -16.9375 22.0625 -17.9375 21.0625 C -18.29296875 18.70703125 -18.29296875 18.70703125 -17.9375 16.0625 C -15.92578125 14.32421875 -15.92578125 14.32421875 -13.25 12.75 C -9.5165428 10.36604843 -7.28259218 8.53860454 -5.1875 4.625 C -3.26235294 1.18 -3.26235294 1.18 0 0 Z" stroke-linecap="round" />
</g>
</svg>